<svg width="768" height="652" viewBox="0 0 768 652" fill="none" xmlns="http://www.w3.org/2000/svg">
<g clip-path="url(#clip0_15_67)">
<path d="M448.198 76.7417C442.389 67.499 435.506 57.6306 424.726 54.6125C412.243 51.1175 399.419 58.0605 388.541 64.9119C356.011 85.402 324.684 107.607 294.704 131.426L294.737 131.785C318.078 130.237 341.419 128.688 364.76 127.14C381.623 126.021 399.067 124.748 413.97 117.073C419.625 114.16 425.137 110.27 431.546 109.999C439.507 109.662 446.449 115.012 451.905 120.601C484.176 153.661 493.514 204.218 529.719 233.263C506.89 179.098 479.63 126.76 448.198 76.7417Z" fill="#6C63FF"/>
<path d="M646.563 357.152C642.994 352.817 641.536 351.801 638.016 347.426C609.354 311.762 582.413 274.894 557.195 236.821C540.066 210.963 523.786 184.608 508.355 157.757C501.009 144.992 493.864 132.127 486.921 119.161C481.533 109.108 476.266 98.9945 471.118 88.8211C469.646 85.9153 468.216 82.9962 466.792 80.0704C463.439 73.1901 460.147 66.2765 456.613 59.4897C452.586 51.7544 447.684 43.645 440.289 38.448C436.924 35.9859 432.9 34.4961 428.687 34.1529C422.667 33.7788 417.112 36.1702 411.891 38.782C373.65 58.1221 337.957 81.802 305.574 109.315C273.142 136.717 244.153 167.675 219.199 201.557C218.435 202.606 216.63 201.604 217.4 200.549C220.435 196.421 223.529 192.337 226.684 188.298C265.909 138.109 314.005 94.9498 368.773 60.7923C377.987 55.0476 387.374 49.5723 396.935 44.3664C401.754 41.7412 406.593 39.1494 411.516 36.718C416.342 34.3333 421.466 32.189 426.979 32.1088C445.74 31.8283 455.454 52.2687 462.126 66.0226C464.223 70.3512 466.346 74.6664 468.493 78.9683C476.61 95.3005 485.039 111.484 493.781 127.518C499.176 137.417 504.689 147.259 510.32 157.043C527.845 187.51 546.472 217.36 566.201 246.593C592.336 285.317 618.262 319.524 648.035 355.736C648.855 356.738 647.39 358.167 646.563 357.152Z" fill="black"/>
<path d="M303.72 99.2216C302.63 98.0526 301.547 96.8837 300.45 95.7147C291.798 86.5098 282.515 77.4118 270.635 72.1347C264.97 69.539 258.787 68.16 252.513 68.0933C246.028 68.1134 239.689 69.7499 233.697 72.0412C230.864 73.13 228.093 74.3658 225.365 75.6817C222.247 77.1913 219.185 78.8012 216.137 80.4244C210.415 83.4704 204.768 86.6501 199.195 89.9633C188.106 96.5563 177.365 103.653 166.971 111.252C161.582 115.193 156.305 119.264 151.14 123.463C146.335 127.364 141.627 131.37 137.017 135.48C136.031 136.355 134.559 134.939 135.545 134.064C136.76 132.975 137.989 131.893 139.218 130.824C142.69 127.805 146.217 124.843 149.8 121.94C156.333 116.636 163.036 111.537 169.908 106.643C180.594 99.0279 191.647 91.9294 203.069 85.3475C208.777 82.061 214.563 78.9126 220.427 75.9021C222.198 74.9937 223.99 74.1052 225.802 73.2636C229.914 71.2682 234.186 69.595 238.578 68.2604C244.798 66.3243 251.38 65.7023 257.873 66.4367C264.143 67.3141 270.183 69.3245 275.676 72.3618C287.341 78.6342 296.388 88.3334 305.192 97.7988C306.081 98.7607 304.616 100.184 303.72 99.2216Z" fill="black"/>
<path d="M542.727 194.609L570.679 184.773L584.557 179.89C589.077 178.299 593.586 176.489 598.259 175.35C602.319 174.234 606.63 174.287 610.66 175.502C614.254 176.782 617.543 178.743 620.333 181.271C623.183 183.795 625.835 186.52 628.266 189.422C631.288 192.915 634.265 196.445 637.255 199.963C649.596 214.484 661.857 229.067 674.037 243.713C686.217 258.359 698.315 273.068 710.332 287.838C722.378 302.645 734.341 317.513 746.222 332.444C747.677 334.273 749.131 336.103 750.584 337.934C751.387 338.945 753.197 337.948 752.383 336.922C740.415 321.842 728.363 306.823 716.228 291.866C704.063 276.873 691.814 261.943 679.482 247.078C667.149 232.212 654.733 217.411 642.233 202.675C639.12 199.003 636 195.336 632.876 191.673C630.241 188.583 627.635 185.46 624.744 182.583C619.439 177.304 612.809 172.639 604.874 172.512C600.209 172.438 595.694 173.862 591.359 175.371C586.686 176.997 582.025 178.654 577.358 180.296L549.21 190.2L542.174 192.676C540.925 193.116 541.464 195.053 542.727 194.609Z" fill="#E4E4E4"/>
<path d="M266.957 83.7172C252.752 76.6939 234.561 78.0695 221.509 86.8441C246.406 90.9765 271.031 96.5057 295.258 103.404C285.197 97.7317 277.328 88.8451 266.957 83.7172Z" fill="#6C63FF"/>
<path d="M221.369 86.8199L218.634 88.9582C219.559 88.2098 220.521 87.5081 221.509 86.844C221.462 86.8363 221.415 86.8276 221.369 86.8199Z" fill="#F2F2F2"/>
<path d="M619.28 194.707C616.529 191.485 613.554 188.111 609.438 186.802L605.596 186.948C634.845 236.671 674.349 280.119 721.681 314.625C687.548 274.652 653.414 234.68 619.28 194.707Z" fill="#F2F2F2"/>
<path d="M443.368 457.94C443.265 457.94 443.162 457.923 443.065 457.888L369.027 431.723C368.808 431.645 368.631 431.488 368.533 431.284C368.435 431.081 368.425 430.848 368.505 430.638C368.586 430.427 368.75 430.256 368.961 430.162C369.173 430.068 369.414 430.059 369.633 430.136L443.671 456.302C443.865 456.37 444.027 456.502 444.13 456.674C444.233 456.846 444.269 457.048 444.233 457.243C444.197 457.439 444.09 457.616 443.932 457.743C443.774 457.87 443.575 457.94 443.368 457.94Z" fill="black"/>
<path d="M308.052 408.911C307.948 408.911 307.846 408.893 307.749 408.859L233.711 382.693C233.492 382.616 233.314 382.458 233.216 382.255C233.118 382.051 233.109 381.819 233.189 381.608C233.269 381.398 233.433 381.227 233.645 381.133C233.856 381.039 234.098 381.029 234.316 381.106L308.355 407.272C308.548 407.341 308.711 407.473 308.813 407.645C308.916 407.817 308.953 408.018 308.917 408.214C308.88 408.409 308.774 408.586 308.616 408.714C308.458 408.841 308.258 408.911 308.052 408.911Z" fill="black"/>
<path d="M170.099 359.882C169.996 359.882 169.893 359.864 169.796 359.83L95.758 333.664C95.6497 333.625 95.5503 333.567 95.4655 333.492C95.3806 333.417 95.312 333.326 95.2636 333.225C95.2152 333.125 95.1878 333.016 95.1831 332.905C95.1784 332.794 95.1965 332.683 95.2362 332.579C95.276 332.475 95.3368 332.379 95.4149 332.298C95.4931 332.216 95.5873 332.15 95.692 332.103C95.7967 332.057 95.9099 332.03 96.0252 332.026C96.1404 332.021 96.2555 332.039 96.3638 332.077L170.402 358.243C170.596 358.311 170.758 358.443 170.861 358.615C170.964 358.787 171 358.989 170.964 359.184C170.928 359.38 170.821 359.557 170.663 359.684C170.505 359.812 170.305 359.881 170.099 359.882Z" fill="black"/>
<path d="M156.227 232.792C153.14 232.128 150.014 231.604 146.928 231.238L146.478 231.185C125.986 228.838 108.687 237.066 106.238 250.327L105.803 252.726C105.531 254.244 105.238 255.875 104.889 257.68C104.721 258.571 105.651 259.482 107.005 259.773L599.846 365.762C634.648 373.001 669.339 380.153 702.948 387.017C709.237 388.384 715.608 389.376 722.024 389.985C731.626 390.767 738.655 389.737 743.517 386.836L743.518 386.836C749.561 383.241 751.081 377.405 752.322 370.708C754.823 357.186 757.486 342.987 760.14 328.832C762.478 316.356 764.811 303.914 767.022 291.997C768.32 284.922 769.026 278.583 764.492 272.646C759.575 266.223 749.044 261.239 733.191 257.83C733 257.789 732.81 257.748 732.615 257.707C682.889 247.218 629.266 255.551 599.184 278.443C595.72 281.079 592.388 283.982 589.166 286.79C584.399 291.14 579.319 295.16 573.963 298.822C571.006 300.78 567.869 302.474 564.591 303.882C564.366 303.987 564.11 304.097 563.844 304.197C563.224 304.465 562.584 304.715 561.967 304.927C558.377 306.26 554.649 307.222 550.848 307.799L550.469 307.854C550.182 307.901 549.873 307.944 549.566 307.978C547.387 308.26 545.193 308.426 542.995 308.476C533.495 308.737 523.15 307.064 512.249 303.504C502.189 300.18 492.579 295.709 483.623 290.189C474.121 284.344 465.488 277.748 457.139 271.369C453.472 268.566 449.679 265.669 445.867 262.876C445.151 262.351 444.446 261.836 443.728 261.319C439.06 257.964 434.786 255.102 430.661 252.572C420.536 246.326 409.55 241.479 398.025 238.172C385.843 234.765 374.626 233.837 364.695 235.404C361.937 235.837 359.219 236.479 356.565 237.322C344.331 241.208 335.55 248.937 327.059 256.413C316.496 265.71 305.573 275.326 287.86 277.718C267.419 280.486 240.556 271.733 222.229 262.616C216.467 259.75 210.767 256.652 205.254 253.655C203.028 252.445 200.799 251.239 198.567 250.037C194.179 247.682 190.572 245.826 187.216 244.191L186.154 243.672C185.563 243.387 184.972 243.101 184.367 242.821C180.369 240.929 176.612 239.309 172.878 237.867L171.995 237.522C170.219 236.858 168.552 236.265 166.909 235.715L166.253 235.496C162.964 234.421 159.617 233.518 156.227 232.792Z" fill="#6C63FF"/>
<path d="M744.242 391.989C744.181 391.989 744.12 391.982 744.06 391.97L93.8372 259.922C93.6103 259.875 93.4122 259.743 93.2861 259.555C93.16 259.368 93.1161 259.14 93.1641 258.922C93.212 258.703 93.3479 258.512 93.542 258.389C93.7361 258.267 93.9727 258.223 94.2001 258.268L744.423 390.316C744.635 390.359 744.824 390.476 744.951 390.645C745.079 390.814 745.138 391.023 745.115 391.231C745.093 391.438 744.991 391.631 744.83 391.771C744.669 391.911 744.459 391.988 744.242 391.989Z" fill="black"/>
<path d="M609.364 86.2242C634.113 86.2242 654.176 66.9222 654.176 43.1121C654.176 19.3019 634.113 0 609.364 0C584.615 0 564.551 19.3019 564.551 43.1121C564.551 66.9222 584.615 86.2242 609.364 86.2242Z" fill="#FF6584" id="#blue-heading"/>
<path d="M690.233 10.0344C668.515 7.21019 643.721 18.5036 638.092 38.8803C636.673 35.2573 634.094 32.162 630.727 30.0415C627.36 27.921 623.38 26.8851 619.361 27.0835C615.342 27.2819 611.493 28.7043 608.369 31.1452C605.245 33.5861 603.009 36.9192 601.984 40.6628L604.47 42.376C651.011 52.0587 699.189 51.8492 745.637 41.762C730.53 26.4877 711.952 12.8586 690.233 10.0344Z" fill="#518BFA"/>
<path d="M597.094 67.5172C575.375 64.693 550.581 75.9864 544.952 96.363C543.533 92.7401 540.954 89.6447 537.587 87.5242C534.22 85.4037 530.24 84.3679 526.221 84.5663C522.202 84.7647 518.353 86.1871 515.229 88.628C512.105 91.0689 509.869 94.402 508.844 98.1456L511.33 99.8588C557.871 109.542 606.049 109.332 652.497 99.2448C637.39 83.9705 618.812 70.3414 597.094 67.5172Z" fill="#518BFA"/>
<path d="M636.068 413.439C635.184 412.584 634.505 411.553 634.08 410.418C633.655 409.283 633.494 408.073 633.607 406.871C633.721 405.67 634.107 404.508 634.738 403.465C635.37 402.423 636.231 401.527 637.261 400.84L623.606 335.591L638.685 340.249L649.615 403.361C650.701 405.102 651.084 407.166 650.694 409.162C650.303 411.158 649.165 412.946 647.495 414.188C645.825 415.431 643.74 416.041 641.634 415.902C639.528 415.764 637.548 414.888 636.068 413.439Z" fill="#9E616A"/>
<path d="M615.907 275.39L625.262 268.596C625.262 268.596 633.516 268.034 634.977 282.353C636.439 296.672 639.441 324.577 639.441 324.577L653.757 388.369L633.939 392.554L618.605 323.711L609.407 303.268L615.907 275.39Z" fill="#2F2E41"/>
<path d="M631.331 379.555L578.61 378.71L574.217 344.051H631.331V379.555Z" fill="#9E616A"/>
<path d="M582.592 591.592L570.422 591.591L564.631 546.428L582.594 546.429L582.592 591.592Z" fill="#9E616A"/>
<path d="M660.13 575.373L647.96 575.291L642.499 530.089L658.328 533.583L660.13 575.373Z" fill="#9E616A"/>
<path d="M622.064 314.203L624.822 321.101L624.271 327.999L570.298 345.984L572.976 315.795L579.043 308.897L622.064 314.203Z" fill="#FFB6B6"/>
<path d="M598.91 252.128C609.556 252.128 618.187 243.825 618.187 233.583C618.187 223.34 609.556 215.037 598.91 215.037C588.264 215.037 579.633 223.34 579.633 233.583C579.633 243.825 588.264 252.128 598.91 252.128Z" fill="#9E616A"/>
<path d="M588.037 613.825H579.4L577.859 605.981L573.911 613.825H551.005C549.907 613.825 548.838 613.487 547.954 612.861C547.069 612.235 546.416 611.354 546.089 610.345C545.763 609.337 545.779 608.254 546.137 607.256C546.496 606.257 547.176 605.395 548.079 604.795L566.371 592.641V584.711L585.611 585.816L588.037 613.825Z" fill="#2F2E41"/>
<path d="M666.516 597.65L657.88 597.591L656.395 589.737L652.39 597.554L629.485 597.4C628.388 597.393 627.321 597.048 626.441 596.416C625.561 595.784 624.914 594.898 624.595 593.888C624.276 592.877 624.3 591.795 624.666 590.799C625.031 589.803 625.718 588.945 626.625 588.351L645.005 576.321L645.063 568.391L664.294 569.625L666.516 597.65Z" fill="#2F2E41"/>
<path d="M663.918 543.229L655.055 491.14L644.511 419.286C652.233 405.49 634.846 362.649 634.846 362.649L632.391 362.762L576.841 372.844L576.853 372.793C565.491 402.606 561.727 417.335 562.349 449.083L564.588 563.211H563.885C562.72 563.211 561.603 563.657 560.779 564.449C559.955 565.242 559.492 566.317 559.492 567.438C559.492 568.559 559.955 569.634 560.779 570.427C561.603 571.219 562.72 571.665 563.885 571.665H585.852C587.018 571.665 588.135 571.219 588.959 570.427C589.783 569.634 590.246 568.559 590.246 567.438C590.246 566.317 589.783 565.242 588.959 564.449C588.135 563.657 587.018 563.211 585.852 563.211H585.286L605.449 427.318L622.544 484.377L641.875 542.705C634.846 541.014 635.937 544.932 635.937 547.15C635.937 548.271 636.4 549.346 637.224 550.139C638.048 550.931 639.165 551.377 640.33 551.377H662.297C663.319 551.378 664.309 551.036 665.097 550.41C665.885 549.784 666.421 548.913 666.613 547.948C666.805 546.982 666.64 545.983 666.148 545.121C665.656 544.26 664.868 543.59 663.918 543.229Z" fill="#2F2E41"/>
<path d="M639.171 364.868L637.414 347.961C637.231 347.271 636.826 346.655 636.257 346.2C635.688 345.745 634.984 345.476 634.246 345.43C633.514 337.376 630.433 302.631 630.249 301.116L630.242 301.052L628.841 272.262C628.79 271.216 628.34 270.225 627.578 269.478C626.816 268.731 625.794 268.281 624.709 268.212L617.31 267.747C617.208 267.744 617.112 267.703 617.041 267.632C616.971 267.562 616.931 267.468 616.931 267.371C616.931 266.584 616.77 265.806 616.458 265.08C616.145 264.353 615.687 263.694 615.109 263.138C614.531 262.582 613.845 262.141 613.09 261.84C612.335 261.539 611.526 261.384 610.709 261.384H588.803C587.384 261.385 586.014 261.884 584.95 262.787C583.886 263.69 583.201 264.936 583.025 266.291C583.015 266.384 582.969 266.47 582.896 266.532C582.823 266.594 582.728 266.628 582.631 266.625L582.628 266.625C580.139 266.576 577.714 267.387 575.793 268.911C573.872 270.434 572.583 272.57 572.159 274.93C569.164 291.694 563.162 329.742 566.129 350.894C567.162 358.257 564.935 352.425 564.545 358.586C564.506 359.182 564.59 359.778 564.791 360.343C564.992 360.907 565.307 361.427 565.718 361.874C563.91 362.38 563.209 364.259 563.673 366.03L563.288 365.938C563.515 366.808 564.093 367.555 564.893 368.015C565.693 368.475 566.651 368.61 567.555 368.391L634.865 352.066C636.747 351.61 639.645 366.679 639.171 364.868Z" fill="#2F2E41"/>
<path d="M565.086 413.439C565.97 412.584 566.649 411.553 567.074 410.418C567.499 409.283 567.661 408.073 567.547 406.871C567.433 405.67 567.047 404.508 566.416 403.465C565.785 402.423 564.923 401.527 563.893 400.84L577.548 335.591L562.469 340.249L551.539 403.361C550.453 405.102 550.07 407.166 550.461 409.162C550.851 411.158 551.99 412.946 553.659 414.188C555.329 415.431 557.415 416.041 559.521 415.902C561.627 415.764 563.607 414.888 565.086 413.439Z" fill="#9E616A"/>
<path d="M585.248 275.39L575.892 268.596C575.892 268.596 567.638 268.034 566.177 282.353C564.715 296.672 561.714 324.577 561.714 324.577L547.397 388.369L567.215 392.554L582.549 323.711L591.748 303.268L585.248 275.39Z" fill="#2F2E41"/>
<path d="M619.552 217.092C623.144 218.121 626.494 215.231 628.993 212.493L628.105 213.507C633.985 217.491 637.501 223.98 639.782 230.55C642.063 237.112 643.336 243.986 645.911 250.454C648.485 256.914 652.641 263.165 659.003 266.388C667.526 270.705 677.968 268.742 687.033 265.628C687.153 265.584 687.266 265.548 687.387 265.505C683.715 258.907 681.467 251.664 680.776 244.21C684.505 251.214 689.883 257.283 696.481 261.934C702.404 259.344 708.099 256.296 713.511 252.822C717.012 250.57 720.701 247.658 721.108 243.623C721.522 239.618 718.413 235.96 714.746 234.034C711.08 232.107 706.863 231.455 702.858 230.296C698.86 229.145 694.78 227.254 692.679 223.778C687.838 215.781 695.984 204.504 690.79 196.71C688.23 192.879 683.261 191.343 678.653 190.278C671.62 188.66 664.482 187.501 657.287 186.809C650.97 186.201 644.443 185.976 638.435 187.932C632.427 189.887 626.976 194.429 625.688 200.411C622.18 202.186 618.468 204.149 616.586 207.517C614.704 210.878 615.75 216.006 619.552 217.092Z" fill="#2F2E41"/>
<path d="M624.913 215.745C628.352 219.889 630.224 224.371 630.224 227.055C637.368 239.616 627.152 250.405 614.095 257.278C608.888 260.034 602.874 261.042 597.005 260.144L596.459 257.901L595.718 259.922C595.718 259.922 587.218 286.933 584.414 288.518C585.478 283.711 586.696 261.453 587.289 256.762C588.109 250.376 585.25 240.87 583.188 235.089C581.91 231.526 581.253 227.784 581.246 224.015V223.85L579.238 230.055L571.928 227.055C573.288 219.551 571.928 211.031 588.233 211.77C597.051 205.936 604.816 205.047 611.195 206.702C612.018 205.477 616.765 207.77 618.137 207.126" fill="#2F2E41"/>
<path d="M643.166 347.624C642.856 350.284 641.632 352.769 639.686 354.683C637.741 356.598 635.187 357.832 632.429 358.19L592.739 363.364C589.457 363.788 586.134 362.943 583.5 361.012C580.866 359.082 579.135 356.224 578.689 353.068L572.969 312.373C572.596 309.728 573.153 307.038 574.55 304.731L574.278 302.753C573.151 302.358 572.157 301.675 571.405 300.776C570.652 299.877 570.17 298.798 570.008 297.654C569.847 296.51 570.014 295.346 570.491 294.287C570.968 293.228 571.737 292.315 572.714 291.646L577.617 269.794C577.551 269.326 577.588 268.849 577.725 268.396C577.862 267.942 578.096 267.521 578.412 267.16C578.728 266.798 579.119 266.505 579.56 266.297C580.002 266.09 580.483 265.974 580.973 265.956C581.865 265.946 582.729 266.255 583.399 266.821C584.069 267.388 584.498 268.172 584.602 269.024L585.051 272.237C585.649 276.483 587.901 280.351 591.352 283.061C594.802 285.771 599.193 287.119 603.637 286.833C608.081 286.548 612.246 284.65 615.291 281.523C618.336 278.396 620.033 274.273 620.04 269.988C620.039 269.222 619.986 268.457 619.881 267.697L619.442 264.536C619.299 263.657 619.508 262.759 620.026 262.023C620.545 261.287 621.335 260.768 622.236 260.571C622.706 260.485 623.188 260.492 623.655 260.592C624.121 260.692 624.561 260.882 624.949 261.151C625.336 261.42 625.662 261.762 625.907 262.157C626.153 262.551 626.312 262.99 626.375 263.445L629.213 283.564C630.774 283.461 632.322 283.895 633.58 284.79C634.838 285.685 635.724 286.982 636.078 288.449C636.433 289.915 636.232 291.454 635.514 292.792C634.795 294.129 633.605 295.176 632.157 295.745C633.577 296.692 634.777 297.913 635.68 299.331C636.584 300.748 637.17 302.331 637.402 303.979L643.131 344.682C643.27 345.657 643.282 346.645 643.166 347.624Z" fill="#CCCCCC"/>
<path d="M573.712 303.648C573.666 303.315 573.758 302.978 573.97 302.71C574.182 302.443 574.495 302.267 574.841 302.222L628.938 294.244C629.11 294.221 629.284 294.232 629.452 294.274C629.619 294.317 629.776 294.391 629.914 294.492C630.051 294.592 630.167 294.718 630.254 294.862C630.341 295.006 630.398 295.165 630.421 295.33C630.445 295.495 630.434 295.663 630.39 295.824C630.345 295.985 630.269 296.136 630.164 296.269C630.059 296.401 629.928 296.512 629.778 296.596C629.629 296.68 629.464 296.735 629.292 296.757L575.195 304.735C574.849 304.779 574.498 304.69 574.22 304.486C573.942 304.283 573.759 303.981 573.712 303.648Z" fill="#3F3D56"/>
<path d="M580.034 325.01L578.246 312.299C578.108 311.319 578.381 310.326 579.004 309.539C579.627 308.752 580.55 308.235 581.569 308.102L633.237 301.744C634.256 301.611 635.288 301.873 636.106 302.473C636.924 303.072 637.462 303.96 637.6 304.94L639.388 317.651C639.525 318.631 639.253 319.625 638.63 320.412C638.007 321.199 637.084 321.716 636.065 321.848L615.427 324.58C615.47 324.716 615.504 324.853 615.53 324.993L617.357 337.977L634.772 335.71C634.886 335.695 635.003 335.702 635.114 335.73C635.226 335.758 635.331 335.807 635.423 335.874C635.515 335.942 635.592 336.026 635.65 336.122C635.708 336.218 635.746 336.324 635.762 336.434C635.777 336.544 635.77 336.656 635.74 336.764C635.711 336.871 635.66 336.972 635.59 337.06C635.519 337.149 635.432 337.223 635.332 337.278C635.232 337.334 635.122 337.371 635.007 337.385L617.592 339.653L609.756 340.673L593.212 342.827C592.981 342.857 592.747 342.797 592.562 342.661C592.377 342.526 592.255 342.325 592.224 342.103C592.193 341.881 592.255 341.656 592.396 341.477C592.537 341.299 592.745 341.182 592.976 341.152L609.52 338.998L607.694 326.013C607.68 325.872 607.675 325.73 607.679 325.589L584.397 328.207C583.378 328.339 582.346 328.077 581.528 327.478C580.709 326.878 580.172 325.991 580.034 325.01Z" fill="#3F3D56"/>
<path d="M376.953 652C376.736 652 376.526 651.923 376.365 651.783L0.290481 325.659C0.117729 325.509 0.013993 325.299 0.00204409 325.076C-0.00990478 324.852 0.0709143 324.633 0.226755 324.466C0.382596 324.3 0.600728 324.2 0.833247 324.188C1.06577 324.176 1.29367 324.253 1.46693 324.403L377.542 650.526C377.674 650.641 377.767 650.791 377.808 650.957C377.85 651.124 377.838 651.298 377.774 651.458C377.71 651.618 377.597 651.755 377.451 651.852C377.304 651.948 377.131 652 376.953 652Z" fill="black"/>
<path d="M573.821 322.568C573.84 322.324 573.804 322.079 573.715 321.849C573.627 321.62 573.489 321.411 573.31 321.237C573.131 321.064 572.915 320.929 572.678 320.842C572.44 320.755 572.186 320.718 571.932 320.734C571.837 320.737 571.743 320.748 571.651 320.767L560.527 323.185C560.278 323.243 560.045 323.35 559.842 323.5C559.639 323.65 559.471 323.84 559.349 324.056C559.186 324.062 559.024 324.084 558.866 324.123C558.167 324.276 557.559 324.689 557.177 325.273C556.795 325.856 556.669 326.562 556.827 327.234C556.986 327.907 557.416 328.491 558.022 328.859C558.628 329.227 559.362 329.348 560.061 329.195C560.459 329.107 560.831 328.933 561.15 328.688L564.92 338.9C565.108 339.22 565.399 339.473 565.749 339.62C566.099 339.768 566.49 339.803 566.862 339.72L574.093 338.147C574.463 338.064 574.795 337.87 575.043 337.594C575.291 337.318 575.441 336.973 575.473 336.609L573.821 322.568ZM559.894 328.468C559.646 328.523 559.39 328.53 559.14 328.489C558.89 328.448 558.65 328.36 558.435 328.23C558.22 328.1 558.034 327.931 557.887 327.732C557.74 327.533 557.635 327.307 557.579 327.069C557.522 326.831 557.515 326.585 557.557 326.344C557.6 326.103 557.691 325.873 557.826 325.666C557.961 325.459 558.137 325.28 558.344 325.138C558.551 324.997 558.785 324.896 559.033 324.842C559.068 324.833 559.103 324.842 559.138 324.833C559.136 325.141 559.217 325.445 559.376 325.713L560.755 328.029C560.515 328.248 560.217 328.4 559.894 328.468Z" fill="#CCCCCC"/>
<path d="M571.932 320.734C572.037 322.086 569.63 323.642 566.405 324.259C563.444 324.842 560.79 324.436 560.043 323.371C560.193 323.285 560.357 323.223 560.527 323.185L571.651 320.767C571.743 320.748 571.837 320.737 571.932 320.734Z" fill="#E6E6E6"/>
<path d="M566.118 347.745L562.889 341.282C560.997 337.495 564.461 333.466 570.61 332.301L578.188 331.072L581.358 352.376L580.702 352.5C574.552 353.665 568.01 351.532 566.118 347.745Z" fill="#9A9A9A"/>
<g opacity="0.2">
<path d="M643.166 347.624C642.856 350.284 641.631 352.769 639.686 354.683C637.741 356.598 635.187 357.832 632.429 358.19L592.739 363.364C590.381 363.671 587.981 363.323 585.822 362.361C583.663 361.4 581.834 359.865 580.552 357.937C581.67 356.635 583.056 355.57 584.623 354.808C586.189 354.046 587.902 353.603 589.655 353.507C593.064 353.338 596.368 354.429 599.707 355.037C607.78 356.501 616.132 355.168 623.282 351.275C626.384 349.543 629.178 347.328 632.587 346.094C635.996 344.868 640.399 344.91 642.868 347.302C642.974 347.403 643.074 347.511 643.166 347.624Z" fill="black"/>
</g>
</g>
<defs>
<clipPath id="clip0_15_67">
<rect width="768" height="652" fill="white"/>
</clipPath>
</defs>
</svg>
